<svg width="150" height="150" viewBox="0 0 150 150" fill="none" xmlns="http://www.w3.org/2000/svg">
<path d="M87.5 12.5H37.5C34.1848 12.5 31.0054 13.817 28.6612 16.1612C26.317 18.5054 25 21.6848 25 25V125C25 128.315 26.317 131.495 28.6612 133.839C31.0054 136.183 34.1848 137.5 37.5 137.5H112.5C115.815 137.5 118.995 136.183 121.339 133.839C123.683 131.495 125 128.315 125 125V50M87.5 12.5L125 50M87.5 12.5V50H125M100 81.25H50M100 106.25H50M62.5 56.25H50" stroke="#1E1E1E" stroke-width="8" stroke-linecap="round" stroke-linejoin="round"/>
</svg>
